<?xml version="1.0" encoding="UTF-8"?>
<svg id="Ebene_1" data-name="Ebene 1" xmlns="http://www.w3.org/2000/svg" viewBox="0 0 985 986">
  <path d="M835.37,844.38C560.96,1112.27,97.6,974.14,13.31,602.19-72.4,223.95,293.73-101.53,659.52,29.98c340.26,122.34,435.62,560.82,175.86,814.4ZM699,153c-99.34-3.18-188.09,80.06-195.04,178.46l.04,368.54h115.5l1.5-1.5v-155.5h78v-117h-78v-87.5c0-4.2,3.33-14.7,4.98-19.02,11.09-29,41.54-50.55,73.02-49.48v-117ZM467,270h-117v156h-78v117h78v85.5c0,3.33-2.62,13.56-3.74,17.26-9.16,30.34-42.07,55.43-74.26,53.24v118c6.32-.66,13.27-.45,19.49-1.01,93.73-8.46,170.57-88.38,175.55-182.45l-.04-363.54Z"/>
</svg>